<svg width="544" height="185" viewBox="0 0 544 185" fill="none" xmlns="http://www.w3.org/2000/svg">
<g filter="url(#filter0_d_121_571)">
<path d="M182.76 84.3509L184.08 96.3509C185.6 93.3109 187.68 90.7109 190.32 88.5509C192.96 86.3109 195.56 84.6309 198.12 83.5109C200.68 82.3109 202.64 81.7109 204 81.7109L203.16 98.5109C199.24 98.0309 195.88 98.6709 193.08 100.431C190.28 102.191 188.12 104.511 186.6 107.391C185.08 110.271 184.32 113.231 184.32 116.271V136.791H167.64V84.3509H182.76ZM259.035 132.111C256.715 133.951 253.795 135.431 250.275 136.551C246.835 137.671 243.435 138.231 240.075 138.231C231.115 138.231 223.915 135.791 218.475 130.911C213.115 126.031 210.435 119.231 210.435 110.511C210.435 104.671 211.755 99.7109 214.395 95.6309C217.035 91.4709 220.475 88.3109 224.715 86.1509C229.035 83.9909 233.555 82.9109 238.275 82.9109C242.995 82.9109 247.075 83.5509 250.515 84.8309C254.035 86.1109 257.035 87.7909 259.515 89.8709L251.355 100.671C250.235 99.7909 248.675 98.9109 246.675 98.0309C244.755 97.0709 242.475 96.5909 239.835 96.5909C236.395 96.5909 233.435 97.9109 230.955 100.551C228.475 103.111 227.235 106.431 227.235 110.511C227.235 114.431 228.515 117.751 231.075 120.471C233.715 123.191 237.195 124.551 241.515 124.551C245.195 124.551 248.235 123.551 250.635 121.551L259.035 132.111ZM271.937 136.791V42.1109H288.377V92.6309C290.217 89.4309 292.817 86.8309 296.177 84.8309C299.537 82.8309 303.617 81.8309 308.417 81.8309C313.377 81.8309 317.497 83.3109 320.777 86.2709C324.137 89.1509 325.857 92.9109 325.937 97.5509V136.791H309.137V103.791C309.057 101.471 308.417 99.6309 307.217 98.2709C306.097 96.8309 304.177 96.1109 301.457 96.1109C297.537 96.1109 294.417 97.9509 292.097 101.631C289.857 105.231 288.737 109.831 288.737 115.431V136.791H271.937ZM336.347 128.151C336.347 125.671 337.227 123.591 338.987 121.911C340.827 120.231 342.827 119.391 344.987 119.391C346.987 119.391 348.867 120.231 350.627 121.911C352.467 123.591 353.387 125.671 353.387 128.151C353.387 130.791 352.467 132.911 350.627 134.511C348.867 136.031 346.987 136.791 344.987 136.791C342.827 136.791 340.827 136.031 338.987 134.511C337.227 132.911 336.347 130.791 336.347 128.151ZM398.252 138.231C394.252 138.231 390.812 137.631 387.932 136.431C385.132 135.231 382.692 133.591 380.612 131.511V136.791H363.812V42.1109H380.492V87.9509C382.572 86.1909 385.332 84.7109 388.772 83.5109C392.212 82.3109 396.132 81.7109 400.532 81.7109C405.092 81.7109 409.252 82.7909 413.012 84.9509C416.772 87.1109 419.772 90.2709 422.012 94.4309C424.332 98.5109 425.492 103.511 425.492 109.431C425.492 115.351 424.212 120.471 421.652 124.791C419.172 129.111 415.852 132.431 411.692 134.751C407.532 137.071 403.052 138.231 398.252 138.231ZM394.532 124.071C397.012 124.071 399.292 123.431 401.372 122.151C403.532 120.871 405.252 119.111 406.532 116.871C407.812 114.631 408.452 112.111 408.452 109.311C408.452 106.511 407.812 104.031 406.532 101.871C405.252 99.7109 403.532 98.0309 401.372 96.8309C399.292 95.5509 397.012 94.9109 394.532 94.9109C391.252 94.9109 388.372 95.6709 385.892 97.1909C383.412 98.7109 381.652 100.751 380.612 103.311V116.151C383.492 121.431 388.132 124.071 394.532 124.071ZM464.495 138.231C458.095 138.231 452.655 137.031 448.175 134.631C443.775 132.231 440.415 128.911 438.095 124.671C435.775 120.431 434.615 115.551 434.615 110.031C434.615 104.751 435.975 99.9909 438.695 95.7509C441.415 91.5109 445.055 88.1509 449.615 85.6709C454.175 83.1109 459.255 81.8309 464.855 81.8309C472.375 81.8309 478.535 84.0309 483.335 88.4309C488.215 92.7509 491.375 99.0309 492.815 107.271L454.415 119.511C456.975 122.471 460.455 123.951 464.855 123.951C466.695 123.951 468.455 123.631 470.135 122.991C471.895 122.351 473.615 121.511 475.295 120.471L482.735 132.951C479.935 134.551 476.895 135.831 473.615 136.791C470.415 137.751 467.375 138.231 464.495 138.231ZM451.175 110.151L474.215 102.351C473.495 100.351 472.335 98.6309 470.735 97.1909C469.135 95.6709 466.735 94.9109 463.535 94.9109C459.775 94.9109 456.775 96.1909 454.535 98.7509C452.295 101.311 451.175 104.751 451.175 109.071C451.175 109.391 451.175 109.751 451.175 110.151ZM509.943 61.3109H526.743V84.1109H539.463V97.1909H526.743V136.791H509.943V97.1909H501.783V84.1109H509.943V61.3109Z" fill="white"/>
</g>
<g filter="url(#filter1_d_121_571)">
<path d="M92.919 9.58081L45.5791 93.8173L61.69 93.8631L93.6808 38.2355L149 136.628V115.601C149 113.982 148.596 112.389 147.825 110.966L92.919 9.58081Z" fill="#00E3D2"/>
<path d="M101.955 113.56L94.8663 101.788L55.711 101.788L32.3821 101.788L88.2812 1.00716L75.9774 1C74.244 0.999046 72.6411 1.92014 71.7691 3.41831L7.72119 113.47L101.955 113.56Z" fill="#00E3D2"/>
<path d="M3 131.762C3 134.45 5.17832 136.628 7.86573 136.628H139.35L93.5742 54.995L85.4652 69.0401L103.741 100.674L116.553 121.744H3V131.762Z" fill="#00E3D2"/>
</g>
<defs>
<filter id="filter0_d_121_571" x="163.64" y="42.1108" width="379.823" height="104.12" filterUnits="userSpaceOnUse" color-interpolation-filters="sRGB">
<feFlood flood-opacity="0" result="BackgroundImageFix"/>
<feColorMatrix in="SourceAlpha" type="matrix" values="0 0 0 0 0 0 0 0 0 0 0 0 0 0 0 0 0 0 127 0" result="hardAlpha"/>
<feOffset dy="4"/>
<feGaussianBlur stdDeviation="2"/>
<feComposite in2="hardAlpha" operator="out"/>
<feColorMatrix type="matrix" values="0 0 0 0 0 0 0 0 0 0 0 0 0 0 0 0 0 0 0.4 0"/>
<feBlend mode="normal" in2="BackgroundImageFix" result="effect1_dropShadow_121_571"/>
<feBlend mode="normal" in="SourceGraphic" in2="effect1_dropShadow_121_571" result="shape"/>
</filter>
<filter id="filter1_d_121_571" x="0" y="0" width="160" height="149.628" filterUnits="userSpaceOnUse" color-interpolation-filters="sRGB">
<feFlood flood-opacity="0" result="BackgroundImageFix"/>
<feColorMatrix in="SourceAlpha" type="matrix" values="0 0 0 0 0 0 0 0 0 0 0 0 0 0 0 0 0 0 127 0" result="hardAlpha"/>
<feOffset dx="4" dy="6"/>
<feGaussianBlur stdDeviation="3.5"/>
<feComposite in2="hardAlpha" operator="out"/>
<feColorMatrix type="matrix" values="0 0 0 0 0 0 0 0 0 0 0 0 0 0 0 0 0 0 0.5 0"/>
<feBlend mode="normal" in2="BackgroundImageFix" result="effect1_dropShadow_121_571"/>
<feBlend mode="normal" in="SourceGraphic" in2="effect1_dropShadow_121_571" result="shape"/>
</filter>
</defs>
</svg>
